<svg xmlns="http://www.w3.org/2000/svg" xmlns:xlink="http://www.w3.org/1999/xlink" version="1.0" id="Layer_1" x="0px" y="0px" width="100px" height="100px" viewBox="5.0 -10.0 100.0 135.0" enable-background="new 0 0 100 100" xml:space="preserve">
<g>
	<path d="M70.484,26.515v3.536c7,5.802,11.067,14.378,11.067,23.938c0,17.434-14.148,31.617-31.582,31.617   s-31.55-14.183-31.55-31.617c0-9.56,5.065-18.136,11.065-23.938v-3.536c-9,6.276-13.796,16.255-13.796,27.474   c0,18.95,15.392,34.366,34.341,34.366s34.284-15.417,34.284-34.366C84.313,42.77,78.484,32.791,70.484,26.515z"/>
</g>
<polygon points="66.601,42.285 52.098,56.789 52.098,9 48.098,9 48.098,56.984 33.399,42.285 31.118,44.565 50,63.448   68.882,44.565 "/>
<text x="0.0" y="117.5" font-size="5.0" font-weight="bold" font-family="Helvetica Neue, Helvetica, Arial-Unicode, Arial, Sans-serif" fill="#000000">Created by Yaroslav Samoilov</text><text x="0.0" y="122.5" font-size="5.0" font-weight="bold" font-family="Helvetica Neue, Helvetica, Arial-Unicode, Arial, Sans-serif" fill="#000000">from the Noun Project</text></svg>