<svg xmlns="http://www.w3.org/2000/svg" xmlns:xlink="http://www.w3.org/1999/xlink" version="1.1" id="Your_Icon" x="0px" y="0px" width="100px" height="100px" viewBox="0 0 100 100" enable-background="new 0 0 100 100" xml:space="preserve">
<g>
	<path fill="#000000" d="M49.984,7.967c-23.206,0-42.018,18.812-42.018,42.017C7.967,73.189,26.778,92,49.984,92   C73.189,92,92,73.189,92,49.983C92,26.779,73.188,7.967,49.984,7.967z M50.023,88.072c-21.013,0-38.048-17.035-38.048-38.049   s17.035-38.048,38.048-38.048c21.014,0,38.048,17.034,38.048,38.048S71.037,88.072,50.023,88.072z"/>
	<polygon fill="#000000" points="45.183,65.936 27.079,52.909 23.427,57.986 41.53,71.012 41.523,71.021 46.599,74.674    74.796,35.487 69.72,31.834  "/>
</g>
</svg>